<?xml version="1.0" encoding="UTF-8"?>
<svg width="326px" height="84px" viewBox="0 0 326 84" version="1.1" xmlns="http://www.w3.org/2000/svg" xmlns:xlink="http://www.w3.org/1999/xlink">
    <!-- Generator: Sketch 58 (84663) - https://sketch.com -->
    <title>daydayup-logo</title>
    <desc>Created with Sketch.</desc>
    <g id="页面-1" stroke="none" stroke-width="1" fill="none" fill-rule="evenodd">
        <g id="画板" transform="translate(-70.000000, -88.000000)" fill="#121212">
            <g id="daydayup-logo" transform="translate(70.000000, 88.000000)">
                <g id="footer备份" transform="translate(166.880000, 0.000000)" fill-rule="nonzero">
                    <g id="编组-2">
                        <g id="编组-6">
                            <g id="编组-3">
                                <g id="编组" transform="translate(0.000000, 0.071164)">
                                    <path d="M8.98010988,19.4836169 L8.89044368,19.3341732 C11.5605171,14.9106187 13.1844554,10.5269818 13.7623071,6.18313096 L18.6341705,7.61779012 L17.2294,8.48456336 C17.0102149,9.12219284 16.7810702,9.67014745 16.5419592,10.1284436 L21.4736,10.1284436 L22.818593,8.09600984 L27.3915691,10.5767746 L25.8672437,11.7723239 C24.532207,15.8372119 22.7588266,19.0651627 20.5470493,21.4562732 C22.3005304,22.273236 24.9904894,22.8710047 28.6170071,23.2495972 L28.5572296,23.4289296 C27.3816003,24.2857442 26.4849473,25.7004634 25.8672437,27.6731296 C22.2208001,26.557278 19.5806551,25.2720753 17.9467296,23.8174831 C15.5556191,25.610816 12.3974079,27.1251633 8.47200143,28.3605704 L8.38233523,28.2111268 C11.6103345,26.0392013 14.1907026,23.8872341 16.1235169,21.7551606 C15.1072949,20.380272 14.1409023,18.2980445 13.2243099,15.5084155 C12.2080879,16.7039708 10.7933687,18.0290246 8.98010988,19.4836169 Z M0.402043674,6.09346477 L0.402043674,5.37613519 L12.8656451,5.37613519 C12.387423,5.23665374 12.1084643,4.85806691 12.0287606,4.24036336 C11.7896495,2.80569703 11.450914,1.7994531 11.0125437,1.22160138 L11.1320986,1.07215772 C14.4796534,1.01237995 16.1733313,1.78947923 16.2131831,3.40347885 C16.1534054,4.35992307 15.5257483,5.0174686 14.330193,5.37613519 L22.370262,5.37613519 L24.4624733,2.56659434 L28.1088986,5.25658026 C28.2483801,5.35620986 28.3181198,5.45583798 28.3181198,5.55546758 C28.2384161,5.87428232 27.9295689,6.05361292 27.3915691,6.09346477 L7.45578453,6.09346477 L11.5804296,7.85689998 L10.0262155,8.69378449 C9.12954906,10.2280804 8.16315637,11.5929856 7.12700847,12.7885408 L9.03988734,13.1472056 L7.90411551,14.1933113 L7.90411551,26.6868014 C7.92404143,27.3443568 7.61519429,27.7229436 6.97756481,27.8225732 C5.9414169,27.9819806 4.97502422,28.0517203 4.07835776,28.0317944 C4.19791329,25.0229803 4.25769016,21.8647691 4.25769016,18.5570662 L4.25769016,15.6279704 C3.06213488,16.6441924 1.72711818,17.6006223 0.252600012,18.4972887 L0.192822547,18.3179563 C3.3411181,14.1335129 5.4731597,10.0587231 6.58901129,6.09346477 L0.402043674,6.09346477 Z M21.9518198,10.8457732 L16.2729606,10.8457732 C16.0936273,11.2642176 15.8545198,11.7025813 15.555631,12.1608774 C18.3054081,12.7985069 19.580648,13.7150856 19.3813888,14.9106408 C19.2419073,16.0862702 18.574399,16.7438157 17.3788437,16.8832972 C16.6814364,16.9032231 16.282924,16.5047106 16.1832944,15.6877479 L16.0936282,15.0600845 C15.9740727,14.0239366 15.744928,13.1472092 15.4061874,12.429876 C14.8482616,13.4062462 14.2305673,14.3028992 13.5530859,15.119862 C14.9877523,17.1523059 16.3925086,18.6965417 17.7673972,19.7526155 C19.7201375,17.1223939 21.1149311,14.1534761 21.9518198,10.8457732 Z M58.4225709,18.9456197 C58.4225709,20.0016935 58.4524593,21.9942558 58.5122371,24.9233662 C58.532163,25.740329 58.5421258,26.2982464 58.5421258,26.5971352 C58.5819776,27.155061 58.3727586,27.4639081 57.9144624,27.5236859 C57.1772033,27.7030192 56.190885,27.8225729 54.9554779,27.8823507 L54.9554779,26.2384704 L45.7497483,26.2384704 L45.7497483,26.7764676 C45.829452,27.4140971 45.5903445,27.7428699 45.0324187,27.7627958 C43.9763449,27.9421291 43.0398407,28.0218316 42.2228779,28.0019056 C42.2826556,25.7702025 42.3225069,23.1798715 42.3424328,20.2308352 L42.3424328,16.6441873 C42.3225069,13.8944102 42.3025813,12.0612529 42.2826553,11.1446605 L46.5268554,12.1309887 L54.5071469,12.1309887 L55.61303,10.2181098 L59.4985652,12.1907662 L58.4225709,13.5058704 L58.4225709,18.9456197 Z M32.1802638,11.2941042 L32.0607089,11.1446605 C33.4156715,9.70999422 34.5713576,8.29527503 35.5278018,6.90046054 C34.9100983,5.5454979 33.973594,4.09092746 32.718261,2.53670561 L32.8378159,2.38726194 C34.3920378,3.48318761 35.6075007,4.49939435 36.4842413,5.43591265 C37.32113,4.02117224 37.9786755,2.556639 38.4568976,1.04226899 L42.6712089,3.31381265 L41.206661,4.03114223 C40.2502168,5.36617895 39.2240472,6.53182786 38.1281215,7.52812392 C39.9015285,10.0587159 40.7483675,14.3427247 40.6686638,20.3802789 C40.7085156,25.142574 38.8255443,27.6930537 35.0196934,28.0317944 C35.0196934,26.1587578 34.0533007,24.9632204 32.1204863,24.4451465 L32.1503751,24.2658141 L34.9898046,24.4451465 C36.4842487,24.4052946 37.261348,22.8909473 37.3211258,19.9020591 C37.3211258,18.666652 37.3012001,17.5408544 37.2613483,16.5246324 C35.9462375,17.9393728 34.2525596,19.2245754 32.1802638,20.3802789 L32.0607089,20.2607239 C34.1529306,17.471095 35.766906,14.6815078 36.9026835,11.8918789 C36.7632021,10.7959532 36.553983,9.81959769 36.2750201,8.96278308 C35.1790945,9.73989401 33.8141893,10.5169933 32.1802638,11.2941042 Z M41.0273286,6.39235209 L41.0273286,5.70491124 L45.4209723,5.70491124 L45.4209723,4.77836054 C45.4209723,3.36362013 45.4010466,2.15811998 45.3611948,1.16182392 L49.7249497,1.90904223 L48.7087328,2.95514786 L48.7087328,5.70491124 L51.8769385,5.70491124 L51.8769385,4.27025209 C51.8769385,3.61269669 51.8570128,2.58652714 51.817161,1.19171265 L56.1809159,1.93893096 L55.164699,2.95514786 L55.164699,5.70491124 L55.7624737,5.70491124 L57.286799,3.49314504 L60.2158948,5.61524505 C60.3354503,5.69494873 60.3952272,5.80453965 60.3952272,5.9440211 C60.3553754,6.222984 60.0664538,6.37242617 59.528454,6.39235209 L55.164699,6.39235209 C55.2045509,7.36872223 55.2244765,8.31518929 55.2244765,9.23178167 C55.2244765,9.61037417 55.0351831,9.84948164 54.6565906,9.94911125 C53.9591833,10.1085186 53.0326419,10.2081467 51.8769385,10.2479986 L51.8769385,6.39235209 L48.7087328,6.39235209 L48.7087328,9.50078026 C48.7087328,9.93915053 48.489551,10.2081464 48.0511807,10.307776 C47.1943661,10.4671834 46.3176387,10.5568487 45.4209723,10.5767746 L45.4209723,6.39235209 L41.0273286,6.39235209 Z M45.7497483,19.364062 L45.7497483,25.5211408 L48.6788441,25.5211408 L48.6788441,19.364062 L45.7497483,19.364062 Z M52.0263821,19.364062 L52.0263821,25.5211408 L54.9554779,25.5211408 L54.9554779,19.364062 L52.0263821,19.364062 Z M45.7497483,12.8483183 L45.7497483,18.6467324 L48.6788441,18.6467324 L48.6788441,12.8483183 L45.7497483,12.8483183 Z M54.9554779,12.8483183 L52.0263821,12.8483183 L52.0263821,18.6467324 L54.9554779,18.6467324 L54.9554779,12.8483183 Z M70.4144501,28.0019056 C74.0409678,26.0491653 76.8903318,24.0366775 78.9626276,21.9643817 C77.6076649,20.2109006 76.601421,17.7899375 75.9438656,14.7014197 L73.4033234,14.7014197 L73.4033234,13.9840901 L83.6551586,13.9840901 L85.0001515,12.1309887 L89.4236839,14.7910859 L87.9292473,15.9268577 C86.7735439,18.1585609 85.5281925,19.9917182 84.1931558,21.4263845 C86.3650812,22.3629028 89.0351146,23.0005227 92.203336,23.3392634 L92.203336,23.5185958 C90.8682993,24.5148918 89.8421298,25.9495366 89.1247966,27.8225732 C85.6178345,26.8262772 82.9478011,25.6008514 81.1146163,24.1462591 C78.3648392,26.0591476 74.8280412,27.3941643 70.5041163,28.1513493 L70.4144501,28.0019056 Z M75.4357572,1.43082251 L80.1282881,2.53670561 L82.7584966,2.53670561 L83.834491,0.743381662 L87.7499149,2.6263718 L86.7635867,3.8219211 L86.7635867,7.85689998 C86.7237349,8.51445538 87.0226192,8.82330253 87.6602487,8.78345068 L88.078691,8.78345068 C88.6764686,8.8033766 89.1546835,8.57423195 89.5133501,8.09600984 L89.6329051,8.09600984 C91.2469047,9.27163919 92.0140411,10.1184781 91.9343375,10.6365521 C91.6354486,11.3937371 90.4697997,11.8022124 88.4373558,11.8619901 L86.285367,11.8619901 C84.1333675,11.9815457 83.1171608,10.855748 83.2367163,8.48456336 L83.2367163,3.25403519 L79.2615149,3.25403519 L79.2615149,4.30014082 C79.5803296,8.82332494 77.2291062,12.1409411 72.2077741,14.2530887 L72.0882191,14.1036451 C73.5029595,12.5294973 74.429501,11.1147781 74.8678712,9.85944505 C75.3460933,8.62403793 75.575238,6.93036003 75.5553121,4.77836054 C75.5553121,3.56287934 75.5154608,2.44704449 75.4357572,1.43082251 Z M67.1565783,11.5332141 L63.9883726,11.5332141 L63.9883726,10.8158845 L66.6783586,10.8158845 L67.7543529,8.87311688 L71.7893318,10.9354394 L70.6236712,12.1907662 L70.6236712,20.3503901 L74.8379825,18.4674 L74.9276487,18.6168437 C73.0546121,20.8286209 71.1218267,22.8610344 69.1292346,24.7141451 L68.4716825,26.1488042 L65.7816966,22.5023789 C66.7381408,21.9444531 67.1964301,21.207205 67.1565783,20.2906127 L67.1565783,11.5332141 Z M83.9839346,14.7014197 L76.2427529,14.7014197 C77.7571229,16.8135674 79.3511727,18.4574312 81.0249501,19.6330606 C82.1607276,18.1983942 83.1470459,16.5545304 83.9839346,14.7014197 Z M66.1403614,1.40093377 L66.2300276,1.31126758 C70.0956563,2.04852666 71.9786276,3.26398963 71.878998,4.95769293 C71.6797388,6.37243334 70.8827139,7.17942105 69.4878994,7.37868026 C68.7904922,7.39860618 68.32224,6.91042843 68.083129,5.91413237 C67.6049069,4.12079946 66.9573241,2.61641497 66.1403614,1.40093377 Z M111.906508,1.43082251 L117.346258,2.17804082 L116.031153,3.40347885 L116.031153,11.9516563 L118.213031,11.9516563 L120.424797,8.99267181 L124.190777,11.8321014 C124.330259,11.9516569 124.399998,12.0612478 124.399998,12.1608774 C124.340221,12.4597663 124.031374,12.6291341 123.473448,12.6689859 L116.031153,12.6689859 L116.031153,16.9131859 C116.031153,17.8098524 116.071005,21.207171 116.150708,27.1052437 C116.170634,27.5635398 115.971378,27.8225729 115.552934,27.8823507 C114.357378,28.1015358 113.141915,28.2011639 111.906508,28.181238 C112.026064,23.0204244 112.085841,19.6629571 112.085841,18.1087352 L112.085841,12.6689859 L105.420653,12.6689859 L105.420653,11.9516563 L112.085841,11.9516563 L112.085841,7.64767885 C112.065915,5.45582751 112.006138,3.38356279 111.906508,1.43082251 Z M102.939889,20.7389437 L107.841641,18.2880676 L107.931307,18.3777338 C105.739456,21.107585 103.567563,23.4488456 101.415563,25.4015859 L100.728122,26.8362451 L97.858804,22.8909324 C98.8152482,22.3330066 99.2735376,21.5957586 99.2336857,20.6791662 L99.2336857,11.8918789 L95.5274829,11.8918789 L95.5274829,11.1745493 L98.5761336,11.1745493 L99.7716829,9.14211547 L104.254993,11.3239929 L102.939889,12.6689859 L102.939889,20.7389437 Z M98.2473575,1.49059997 L98.307135,1.37104504 C102.19269,2.04852636 104.085624,3.28391495 103.985994,5.07724786 C103.826587,6.53184011 103.029562,7.33882782 101.594896,7.49823519 C100.698229,7.49823519 100.140312,7.02002025 99.9211266,6.06357603 C99.5226081,4.19053944 98.9646907,2.66622933 98.2473575,1.49059997 Z M137.467872,5.0174704 L137.408095,4.838138 C141.672242,3.88169378 144.810527,3.01492921 146.823045,2.23781828 C148.197934,1.73967025 149.443285,1.19171564 150.559137,0.593938 L154.205562,3.94147603 L152.442127,3.94147603 C150.987535,4.16066116 149.403448,4.35991739 147.689819,4.53925068 L147.689819,10.0686662 L150.499359,10.0686662 L152.38235,7.55801265 L155.550555,9.94911125 C155.670111,10.0288149 155.729888,10.1483687 155.729888,10.307776 C155.650184,10.5867389 155.341337,10.7461439 154.803337,10.7859958 L147.689819,10.7859958 L147.689819,15.9567465 L149.094589,15.9567465 L150.170583,13.9840901 L154.444672,16.1360789 L153.279011,17.3615169 L153.279011,20.8584986 C153.279011,22.2134612 153.318863,24.1362838 153.398566,26.6270239 C153.458344,27.1849497 153.2292,27.5037597 152.711126,27.5834634 C151.874237,27.7627967 150.848067,27.8723876 149.632586,27.9122394 L149.632586,25.0728099 L142.250069,25.0728099 L142.250069,26.6270239 C142.269995,27.2447275 141.991036,27.6033887 141.413185,27.7030183 C140.377037,27.9022775 139.420607,28.0019056 138.543866,28.0019056 C138.62357,25.1126471 138.663421,23.0702708 138.663421,21.8747155 L138.663421,20.4699451 C136.989644,22.4824631 135.266078,24.3056576 133.492671,25.9395831 L132.924785,27.4639084 L130.085355,23.6979282 C130.962096,23.2197061 131.380534,22.5223093 131.340682,21.6057169 L131.340682,12.4896535 L127.694257,12.4896535 L127.694257,11.7723239 L130.862462,11.7723239 L131.998234,9.71000139 L136.003324,11.7424352 L134.867552,12.9379845 L134.867552,21.5459394 L138.663421,19.9319479 L138.663421,19.4537282 C138.663421,17.4013583 138.643496,15.887011 138.603644,14.9106408 L142.519068,15.9567465 L143.983616,15.9567465 L143.983616,10.7859958 L136.870097,10.7859958 L136.870097,10.0686662 L143.983616,10.0686662 L143.983616,4.838138 C141.453024,4.97761945 139.281131,5.03739632 137.467872,5.0174704 Z M149.632586,16.674076 L142.250069,16.674076 L142.250069,24.3554803 L149.632586,24.3554803 L149.632586,16.674076 Z M130.20491,1.37104504 L130.294576,1.28137885 C134.100427,1.91900833 135.983399,3.13447129 135.943547,4.9278042 C135.704436,6.36247053 134.857597,7.17942105 133.403004,7.37868026 C132.685671,7.37868026 132.237345,6.96024219 132.058011,6.1233535 C131.699345,4.44957611 131.081651,2.86548914 130.20491,1.37104504 Z" id="夜猫设计话"></path>
                                </g>
                            </g>
                        </g>
                    </g>
                </g>
                <path d="M0,67 L0,22.2 L14.72,22.2 C18.3040179,22.2 21.4719862,22.829327 24.224,24.088 C26.9760138,25.346673 29.2906573,27.0213229 31.168,29.112 C33.0453427,31.2026771 34.4639952,33.5919866 35.424,36.28 C36.3840048,38.9680134 36.864,41.741319 36.864,44.6 C36.864,47.458681 36.3840048,50.2319866 35.424,52.92 C34.4639952,55.6080134 33.0453427,57.9973229 31.168,60.088 C29.2906573,62.1786771 26.9760138,63.853327 24.224,65.112 C21.4719862,66.370673 18.3040179,67 14.72,67 L0,67 Z M14.464,59 C16.2986758,59 18.015992,58.6266704 19.616,57.88 C21.216008,57.1333296 22.6239939,56.1200064 23.84,54.84 C25.0560061,53.5599936 26.0159965,52.0453421 26.72,50.296 C27.4240035,48.5466579 27.776,46.6480102 27.776,44.6 C27.776,42.5519898 27.4240035,40.6533421 26.72,38.904 C26.0159965,37.1546579 25.0560061,35.6400064 23.84,34.36 C22.6239939,33.0799936 21.216008,32.0666704 19.616,31.32 C18.015992,30.5733296 16.2986758,30.2 14.464,30.2 L9.088,30.2 L9.088,59 L14.464,59 Z M68.992,67 L68.992,63.672 C67.3279917,65.1653408 65.5680093,66.2213302 63.712,66.84 C61.8559907,67.4586698 59.9040102,67.768 57.856,67.768 C55.5519885,67.768 53.4080099,67.3520042 51.424,66.52 C49.4399901,65.6879958 47.7333405,64.5040077 46.304,62.968 C44.8746595,61.4319923 43.7440042,59.597344 42.912,57.464 C42.0799958,55.330656 41.664,52.9626797 41.664,50.36 C41.664,47.7573203 42.0799958,45.389344 42.912,43.256 C43.7440042,41.122656 44.8746595,39.2880077 46.304,37.752 C47.7333405,36.2159923 49.4399901,35.0320042 51.424,34.2 C53.4080099,33.3679958 55.5519885,32.952 57.856,32.952 C59.8613434,32.952 61.7919907,33.2506637 63.648,33.848 C65.5040093,34.4453363 67.2639917,35.4906592 68.928,36.984 L68.928,33.912 L77.376,33.912 L77.376,67 L68.992,67 Z M68.416,46.328 C67.1786605,44.4079904 65.7493414,43.0746704 64.128,42.328 C62.5066586,41.5813296 60.992007,41.208 59.584,41.208 C58.4319942,41.208 57.3333386,41.3999981 56.288,41.784 C55.2426614,42.1680019 54.3146707,42.7333296 53.504,43.48 C52.6933293,44.2266704 52.0426691,45.1759942 51.552,46.328 C51.0613309,47.4800058 50.816,48.8239923 50.816,50.36 C50.816,51.8960077 51.0613309,53.2399942 51.552,54.392 C52.0426691,55.5440058 52.6933293,56.4933296 53.504,57.24 C54.3146707,57.9866704 55.2426614,58.5519981 56.288,58.936 C57.3333386,59.3200019 58.4319942,59.512 59.584,59.512 C60.992007,59.512 62.5066586,59.149337 64.128,58.424 C65.7493414,57.698663 67.1786605,56.3760096 68.416,54.456 L68.416,46.328 Z M85.12,73.72 C85.845337,73.9760013 86.5173302,74.1573328 87.136,74.264 C87.7546698,74.3706672 88.3413306,74.424 88.896,74.424 C90.8160096,74.424 92.3626608,73.8266726 93.536,72.632 C94.7093392,71.4373274 95.6799962,69.8800096 96.448,67.96 L97.216,66.04 L81.856,33.912 L92.224,33.912 L101.632,55.416 L109.824,33.912 L120.192,33.912 L104.32,70.2 C103.423996,72.2480102 102.464005,74.0826586 101.44,75.704 C100.415995,77.3253414 99.3066726,78.7013277 98.112,79.832 C96.9173274,80.9626723 95.5946739,81.8159971 94.144,82.392 C92.6933261,82.9680029 91.0933421,83.256 89.344,83.256 C87.4239904,83.256 85.2480122,82.8720038 82.816,82.104 L85.12,73.72 Z M150.08,67 L150.08,63.672 C148.415992,65.1653408 146.656009,66.2213302 144.8,66.84 C142.943991,67.4586698 140.99201,67.768 138.944,67.768 C136.639988,67.768 134.49601,67.3520042 132.512,66.52 C130.52799,65.6879958 128.82134,64.5040077 127.392,62.968 C125.96266,61.4319923 124.832004,59.597344 124,57.464 C123.167996,55.330656 122.752,52.9626797 122.752,50.36 C122.752,47.7573203 123.167996,45.389344 124,43.256 C124.832004,41.122656 125.96266,39.2880077 127.392,37.752 C128.82134,36.2159923 130.52799,35.0320042 132.512,34.2 C134.49601,33.3679958 136.639988,32.952 138.944,32.952 C140.86401,32.952 142.698658,33.218664 144.448,33.752 C146.197342,34.285336 147.882659,35.2133267 149.504,36.536 L149.504,22.2 L158.464,22.2 L158.464,67 L150.08,67 Z M149.504,46.328 C148.26666,44.4079904 146.837341,43.0746704 145.216,42.328 C143.594659,41.5813296 142.080007,41.208 140.672,41.208 C139.519994,41.208 138.421339,41.3999981 137.376,41.784 C136.330661,42.1680019 135.413337,42.7333296 134.624,43.48 C133.834663,44.2266704 133.194669,45.1759942 132.704,46.328 C132.213331,47.4800058 131.968,48.8239923 131.968,50.36 C131.968,51.8960077 132.213331,53.2399942 132.704,54.392 C133.194669,55.5440058 133.834663,56.4933296 134.624,57.24 C135.413337,57.9866704 136.330661,58.5519981 137.376,58.936 C138.421339,59.3200019 139.519994,59.512 140.672,59.512 C142.080007,59.512 143.594659,59.149337 145.216,58.424 C146.837341,57.698663 148.26666,56.3760096 149.504,54.456 L149.504,46.328 Z M192.832,67 L192.832,63.672 C191.167992,65.1653408 189.408009,66.2213302 187.552,66.84 C185.695991,67.4586698 183.74401,67.768 181.696,67.768 C179.391988,67.768 177.24801,67.3520042 175.264,66.52 C173.27999,65.6879958 171.57334,64.5040077 170.144,62.968 C168.71466,61.4319923 167.584004,59.597344 166.752,57.464 C165.919996,55.330656 165.504,52.9626797 165.504,50.36 C165.504,47.7573203 165.919996,45.389344 166.752,43.256 C167.584004,41.122656 168.71466,39.2880077 170.144,37.752 C171.57334,36.2159923 173.27999,35.0320042 175.264,34.2 C177.24801,33.3679958 179.391988,32.952 181.696,32.952 C183.701343,32.952 185.631991,33.2506637 187.488,33.848 C189.344009,34.4453363 191.103992,35.4906592 192.768,36.984 L192.768,33.912 L201.216,33.912 L201.216,67 L192.832,67 Z M192.256,46.328 C191.01866,44.4079904 189.589341,43.0746704 187.968,42.328 C186.346659,41.5813296 184.832007,41.208 183.424,41.208 C182.271994,41.208 181.173339,41.3999981 180.128,41.784 C179.082661,42.1680019 178.154671,42.7333296 177.344,43.48 C176.533329,44.2266704 175.882669,45.1759942 175.392,46.328 C174.901331,47.4800058 174.656,48.8239923 174.656,50.36 C174.656,51.8960077 174.901331,53.2399942 175.392,54.392 C175.882669,55.5440058 176.533329,56.4933296 177.344,57.24 C178.154671,57.9866704 179.082661,58.5519981 180.128,58.936 C181.173339,59.3200019 182.271994,59.512 183.424,59.512 C184.832007,59.512 186.346659,59.149337 187.968,58.424 C189.589341,57.698663 191.01866,56.3760096 192.256,54.456 L192.256,46.328 Z M208.96,73.72 C209.685337,73.9760013 210.35733,74.1573328 210.976,74.264 C211.59467,74.3706672 212.181331,74.424 212.736,74.424 C214.65601,74.424 216.202661,73.8266726 217.376,72.632 C218.549339,71.4373274 219.519996,69.8800096 220.288,67.96 L221.056,66.04 L205.696,33.912 L216.064,33.912 L225.472,55.416 L233.664,33.912 L244.032,33.912 L228.16,70.2 C227.263996,72.2480102 226.304005,74.0826586 225.28,75.704 C224.255995,77.3253414 223.146673,78.7013277 221.952,79.832 C220.757327,80.9626723 219.434674,81.8159971 217.984,82.392 C216.533326,82.9680029 214.933342,83.256 213.184,83.256 C211.26399,83.256 209.088012,82.8720038 206.656,82.104 L208.96,73.72 Z M309.824,32.952 C312.128012,32.952 314.27199,33.3679958 316.256,34.2 C318.24001,35.0320042 319.94666,36.2159923 321.376,37.752 C322.80534,39.2880077 323.935996,41.122656 324.768,43.256 C325.600004,45.389344 326.016,47.7573203 326.016,50.36 C326.016,52.9626797 325.600004,55.330656 324.768,57.464 C323.935996,59.597344 322.80534,61.4319923 321.376,62.968 C319.94666,64.5040077 318.24001,65.6879958 316.256,66.52 C314.27199,67.3520042 312.128012,67.768 309.824,67.768 C307.90399,67.768 306.058676,67.501336 304.288,66.968 C302.517324,66.434664 300.842675,65.5066733 299.264,64.184 L299.264,82.04 L290.304,82.04 L290.304,33.912 L298.688,33.912 L298.688,37.048 C300.352008,35.5546592 302.111991,34.4986698 303.968,33.88 C305.824009,33.2613302 307.77599,32.952 309.824,32.952 Z M256.832,33.912 L256.832,51.576 C256.832,52.9413402 257.034665,54.1039952 257.44,55.064 C257.845335,56.0240048 258.378663,56.8239968 259.04,57.464 C259.701337,58.1040032 260.458662,58.5733318 261.312,58.872 C262.165338,59.1706682 263.039996,59.32 263.936,59.32 C265.557341,59.32 267.157325,58.882671 268.736,58.008 C270.314675,57.133329 271.530662,55.8640083 272.384,54.2 L272.384,33.912 L281.344,33.912 L281.344,67 L272.384,67 L272.384,64.12 C270.933326,65.2293389 269.333342,66.1146634 267.584,66.776 C265.834658,67.4373366 263.93601,67.768 261.888,67.768 C257.663979,67.768 254.272013,66.4453466 251.712,63.8 C249.151987,61.1546534 247.872,57.3146918 247.872,52.28 L247.872,33.912 L256.832,33.912 Z M308.096,41.208 C306.645326,41.208 305.109341,41.5813296 303.488,42.328 C301.866659,43.0746704 300.458673,44.4079904 299.264,46.328 L299.264,46.328 L299.264,54.456 C300.458673,56.3760096 301.866659,57.698663 303.488,58.424 C305.109341,59.149337 306.645326,59.512 308.096,59.512 C309.248006,59.512 310.346661,59.3200019 311.392,58.936 C312.437339,58.5519981 313.354663,57.9866704 314.144,57.24 C314.933337,56.4933296 315.573331,55.5440058 316.064,54.392 C316.554669,53.2399942 316.8,51.8960077 316.8,50.36 C316.8,48.8239923 316.554669,47.4800058 316.064,46.328 C315.573331,45.1759942 314.933337,44.2266704 314.144,43.48 C313.354663,42.7333296 312.437339,42.1680019 311.392,41.784 C310.346661,41.3999981 309.248006,41.208 308.096,41.208 Z" id="Daydayup" fill-rule="nonzero"></path>
                <g id="Group" transform="translate(3.000000, 33.000000)">
                    <path d="M1.3170925,25.8176961 L1.3170925,25.8176961 C0.632998912,25.8176961 0.0730666771,20.406202 0.0730666771,20.406202 C0.0730666771,19.953516 0.632998912,19.583072 1.3170925,19.583072 C2.00118609,19.583072 2.56097643,19.953516 2.56097643,20.406202 C2.56097643,20.406202 2.00118609,25.8176961 1.3170925,25.8176961" id="Fill-4"></path>
                    <path d="M29.9745265,7.81130397 C29.9745265,8.09297211 29.7464953,8.32137471 29.4649683,8.32137471 C29.1835832,8.32137471 28.9552682,8.09297211 28.9552682,7.81130397 C28.9552682,7.52963583 29.1835832,7.30123322 29.4649683,7.30123322 C29.7464953,7.30123322 29.9745265,7.52963583 29.9745265,7.81130397 M17.82587,14.4834156 C16.9638355,16.936613 14.2782608,18.2256389 11.8275286,17.3625953 C9.93318103,16.6955687 8.6461599,14.9913558 8.68518204,13.0942505 C8.69185128,13.0226617 8.72008912,12.9834582 8.7864977,12.9522091 C9.28030515,12.7648565 9.80930347,12.6208265 10.4536654,12.4728193 C10.5136886,12.4563425 10.5976926,12.5023639 10.5893206,12.59185 C10.4274142,13.8820123 11.1769231,15.1356699 12.4523085,15.5848048 C12.685448,15.6669048 12.9218513,15.7151989 13.1569774,15.7339483 C13.2652461,15.7424708 13.30739,15.6289797 13.2323256,15.5610839 C12.8076228,15.1778562 12.6302494,14.563527 12.8317456,13.9898217 C13.0995084,13.2277695 13.9337308,12.8273547 14.6948754,13.0955289 C15.2390569,13.2871428 15.597493,13.7685212 15.6599284,14.3060059 C15.6707127,14.3984749 15.7798328,14.4220538 15.8307744,14.3339881 C15.9170488,14.1851287 15.9906943,14.0261843 16.049866,13.8580073 C16.3128043,13.1097331 16.248808,12.344698 15.9225829,11.6861939 C15.8851216,11.5981283 15.9501112,11.5344937 16.003607,11.5276757 C16.6652806,11.4269683 17.1850555,11.34359 17.6416855,11.2471439 C17.7546369,11.2261218 17.7984836,11.2964323 17.8206198,11.3467149 C18.1845899,12.338022 18.2033205,13.4092984 17.82587,14.4834156 M25.2304275,4.95257832 C26.9266845,4.01609923 28.4380474,1.55352711 28.2381122,0.41478104 C28.2043403,0.223025121 28.1074235,0.107403404 27.9547405,0.0551321613 C27.6265288,-0.0570805614 27.2869653,0.208394855 27.2844111,0.209389145 C24.5037643,2.23461573 22.6368032,2.81869005 20.8321357,3.31782361 C18.3682068,3.99948039 11.8638546,4.69605152 10.6970217,4.9545669 C7.38283585,5.68906309 4.79531322,7.78573651 3.71957924,10.8468712 C3.0188835,12.8402805 3.19086472,15.2068326 3.20179092,17.1874582 C3.21271712,19.1501865 3.16887042,20.7639191 3.37902238,21.4349228 C3.38711061,21.4604903 3.39605023,21.4837851 3.40541554,21.5060856 C3.41648364,21.5332155 3.42953832,21.559067 3.44429578,21.5843504 C3.44897844,21.5923047 3.45366109,21.600259 3.45848565,21.6077872 C3.47026324,21.6259685 3.48260843,21.6435817 3.4963726,21.6604846 C3.51283285,21.6809385 3.529435,21.6992619 3.54617904,21.7155967 C3.55228068,21.7215624 3.55838233,21.7275281 3.56490967,21.7330677 C3.57654536,21.7435788 3.58832295,21.7536638 3.59967485,21.7627544 C3.60237092,21.7636067 3.60549269,21.7644589 3.60818877,21.7654532 C3.65458964,21.7992591 3.70453798,21.8290877 3.76158125,21.8492576 C3.94917132,21.9151648 4.1464105,21.881217 4.29923539,21.7773847 C4.30292476,21.775112 4.30732362,21.7738336 4.31101299,21.7712769 C4.31186438,21.7705667 4.31271577,21.7695724 4.31370906,21.7687201 C4.38011765,21.7207101 4.43716092,21.6593483 4.48015623,21.5861969 C4.48086572,21.5852026 4.48157521,21.5844924 4.48228471,21.5836402 C4.84966042,21.0950177 5.09855072,20.1970318 5.53162553,19.460547 C6.46120385,17.8740864 8.13504081,17.8711035 10.12517,18.6597175 C10.4755178,18.7987761 10.8092635,18.9138296 11.1259814,19.0091394 C11.1623075,19.0226333 11.1977822,19.0375477 11.234392,19.0503314 C11.9653122,19.3078525 12.7114155,19.4258889 13.4440384,19.4196391 C13.4473021,19.4197812 13.4508496,19.4199232 13.4541132,19.4200652 C13.4570931,19.4202073 13.4587959,19.4199232 13.4612082,19.4197812 C16.0193578,19.3908047 18.4087898,17.8380079 19.408608,15.348732 C19.8123098,14.4669388 20.7015889,11.6381839 21.0100767,10.8911881 C21.1007499,10.6940346 21.1743953,10.6607969 21.3448157,10.6069632 C21.9010585,10.4600924 22.2775158,10.3244428 22.4436791,10.273734 C23.0654792,10.0839667 25.7238093,8.94436839 27.2473755,6.06632511 C27.564661,5.46733644 27.9574366,4.4587003 28.1482903,3.49779009 C28.1656019,3.4107187 28.073084,3.36725402 28.0089458,3.43117266 C27.2825664,4.15728841 26.3051682,4.81920143 25.2474554,5.03666685 C25.1584849,5.05484815 25.1447207,4.99987812 25.2304275,4.95257832" id="Fill-6"></path>
                </g>
            </g>
        </g>
    </g>
</svg>